<mxfile host="Electron" modified="2023-06-15T13:28:17.992Z" agent="Mozilla/5.0 (X11; Linux x86_64) AppleWebKit/537.36 (KHTML, like Gecko) draw.io/21.2.1 Chrome/112.0.5615.87 Electron/24.1.2 Safari/537.36" etag="qYx-mkntCuts7rs9snZl" version="21.2.1" type="device">
  <diagram name="Seite-1" id="pC8eh3_p7w5gtLB_CGjV">
    <mxGraphModel dx="683" dy="478" grid="1" gridSize="10" guides="1" tooltips="1" connect="1" arrows="1" fold="1" page="1" pageScale="1" pageWidth="827" pageHeight="1169" math="0" shadow="0">
      <root>
        <mxCell id="0" />
        <mxCell id="1" parent="0" />
        <mxCell id="OVGBnBmBJw9VG8SYzuW9-14" value="&lt;font style=&quot;font-size: 20px;&quot;&gt;+&lt;/font&gt;" style="text;html=1;align=center;verticalAlign=middle;resizable=0;points=[];autosize=1;" vertex="1" parent="1">
          <mxGeometry x="590" y="160" width="40" height="40" as="geometry" />
        </mxCell>
        <mxCell id="OVGBnBmBJw9VG8SYzuW9-2" value="" style="rounded=0;whiteSpace=wrap;html=1;fillColor=#f5f5f5;fontColor=#333333;strokeColor=#666666;" vertex="1" parent="1">
          <mxGeometry x="270" y="150" width="190" height="320" as="geometry" />
        </mxCell>
        <mxCell id="OVGBnBmBJw9VG8SYzuW9-6" style="edgeStyle=orthogonalEdgeStyle;rounded=0;orthogonalLoop=1;jettySize=auto;html=1;exitX=0;exitY=0.43;exitDx=0;exitDy=0;exitPerimeter=0;entryX=0.7;entryY=1;entryDx=0;entryDy=0;entryPerimeter=0;endArrow=none;endFill=0;" edge="1" parent="1" source="OVGBnBmBJw9VG8SYzuW9-1" target="OVGBnBmBJw9VG8SYzuW9-3">
          <mxGeometry relative="1" as="geometry" />
        </mxCell>
        <mxCell id="OVGBnBmBJw9VG8SYzuW9-8" style="edgeStyle=orthogonalEdgeStyle;rounded=0;orthogonalLoop=1;jettySize=auto;html=1;exitX=0;exitY=0.43;exitDx=0;exitDy=0;exitPerimeter=0;entryX=0;entryY=0.75;entryDx=0;entryDy=0;entryPerimeter=0;endArrow=none;endFill=0;fillColor=#d5e8d4;strokeColor=#82b366;" edge="1" parent="1" source="OVGBnBmBJw9VG8SYzuW9-1" target="OVGBnBmBJw9VG8SYzuW9-5">
          <mxGeometry relative="1" as="geometry">
            <Array as="points">
              <mxPoint x="480" y="360" />
            </Array>
          </mxGeometry>
        </mxCell>
        <mxCell id="OVGBnBmBJw9VG8SYzuW9-9" style="edgeStyle=orthogonalEdgeStyle;rounded=0;orthogonalLoop=1;jettySize=auto;html=1;exitX=0.5;exitY=1;exitDx=0;exitDy=0;exitPerimeter=0;entryX=0;entryY=0.25;entryDx=0;entryDy=0;entryPerimeter=0;endArrow=none;endFill=0;fillColor=#d5e8d4;strokeColor=#82b366;dashed=1;dashPattern=8 8;" edge="1" parent="1" source="OVGBnBmBJw9VG8SYzuW9-1" target="OVGBnBmBJw9VG8SYzuW9-5">
          <mxGeometry relative="1" as="geometry" />
        </mxCell>
        <mxCell id="OVGBnBmBJw9VG8SYzuW9-11" style="edgeStyle=orthogonalEdgeStyle;rounded=0;orthogonalLoop=1;jettySize=auto;html=1;exitX=0.5;exitY=1;exitDx=0;exitDy=0;exitPerimeter=0;entryX=0;entryY=0.75;entryDx=0;entryDy=0;entryPerimeter=0;endArrow=none;endFill=0;fillColor=#d5e8d4;strokeColor=#82b366;dashed=1;dashPattern=8 8;" edge="1" parent="1" source="OVGBnBmBJw9VG8SYzuW9-1" target="OVGBnBmBJw9VG8SYzuW9-10">
          <mxGeometry relative="1" as="geometry" />
        </mxCell>
        <mxCell id="OVGBnBmBJw9VG8SYzuW9-12" style="edgeStyle=orthogonalEdgeStyle;rounded=0;orthogonalLoop=1;jettySize=auto;html=1;exitX=1;exitY=0.43;exitDx=0;exitDy=0;exitPerimeter=0;entryX=0;entryY=0.25;entryDx=0;entryDy=0;entryPerimeter=0;endArrow=none;endFill=0;fillColor=#d5e8d4;strokeColor=#82b366;" edge="1" parent="1" source="OVGBnBmBJw9VG8SYzuW9-1" target="OVGBnBmBJw9VG8SYzuW9-10">
          <mxGeometry relative="1" as="geometry" />
        </mxCell>
        <mxCell id="OVGBnBmBJw9VG8SYzuW9-13" style="edgeStyle=orthogonalEdgeStyle;rounded=0;orthogonalLoop=1;jettySize=auto;html=1;exitX=1;exitY=0.43;exitDx=0;exitDy=0;exitPerimeter=0;endArrow=oval;endFill=0;" edge="1" parent="1" source="OVGBnBmBJw9VG8SYzuW9-1">
          <mxGeometry relative="1" as="geometry">
            <mxPoint x="620" y="190" as="targetPoint" />
          </mxGeometry>
        </mxCell>
        <mxCell id="OVGBnBmBJw9VG8SYzuW9-18" style="edgeStyle=orthogonalEdgeStyle;rounded=0;orthogonalLoop=1;jettySize=auto;html=1;exitX=0;exitY=0.43;exitDx=0;exitDy=0;exitPerimeter=0;entryX=0;entryY=0.25;entryDx=0;entryDy=0;entryPerimeter=0;endArrow=none;endFill=0;fillColor=#dae8fc;strokeColor=#6c8ebf;" edge="1" parent="1" source="OVGBnBmBJw9VG8SYzuW9-1" target="OVGBnBmBJw9VG8SYzuW9-17">
          <mxGeometry relative="1" as="geometry">
            <Array as="points">
              <mxPoint x="480" y="310" />
            </Array>
          </mxGeometry>
        </mxCell>
        <mxCell id="OVGBnBmBJw9VG8SYzuW9-1" value="" style="pointerEvents=1;verticalLabelPosition=bottom;shadow=0;dashed=0;align=center;html=1;verticalAlign=top;strokeWidth=1;shape=mxgraph.electrical.miscellaneous.multicell_battery_tapped;" vertex="1" parent="1">
          <mxGeometry x="480" y="160" width="100" height="70" as="geometry" />
        </mxCell>
        <mxCell id="OVGBnBmBJw9VG8SYzuW9-7" style="edgeStyle=orthogonalEdgeStyle;rounded=0;orthogonalLoop=1;jettySize=auto;html=1;exitX=0.7;exitY=0;exitDx=0;exitDy=0;exitPerimeter=0;entryX=0.5;entryY=0;entryDx=0;entryDy=0;entryPerimeter=0;endArrow=none;endFill=0;" edge="1" parent="1" source="OVGBnBmBJw9VG8SYzuW9-3" target="OVGBnBmBJw9VG8SYzuW9-4">
          <mxGeometry relative="1" as="geometry" />
        </mxCell>
        <mxCell id="OVGBnBmBJw9VG8SYzuW9-3" value="" style="verticalLabelPosition=bottom;shadow=0;dashed=0;align=center;html=1;verticalAlign=top;shape=mxgraph.electrical.mosfets1.n-channel_mosfet_1;rotation=-90;fillColor=#f8cecc;strokeColor=#b85450;" vertex="1" parent="1">
          <mxGeometry x="350" y="159" width="95" height="100" as="geometry" />
        </mxCell>
        <mxCell id="OVGBnBmBJw9VG8SYzuW9-4" value="" style="pointerEvents=1;verticalLabelPosition=bottom;shadow=0;dashed=0;align=center;html=1;verticalAlign=top;shape=mxgraph.electrical.signal_sources.signal_ground;" vertex="1" parent="1">
          <mxGeometry x="230" y="210" width="30" height="20" as="geometry" />
        </mxCell>
        <mxCell id="OVGBnBmBJw9VG8SYzuW9-5" value="" style="verticalLabelPosition=bottom;shadow=0;dashed=0;align=center;html=1;verticalAlign=top;shape=mxgraph.electrical.logic_gates.logic_gate;operation=and;rotation=-180;fillColor=#d5e8d4;strokeColor=#82b366;" vertex="1" parent="1">
          <mxGeometry x="370" y="350" width="70" height="40" as="geometry" />
        </mxCell>
        <mxCell id="OVGBnBmBJw9VG8SYzuW9-27" style="edgeStyle=orthogonalEdgeStyle;rounded=0;orthogonalLoop=1;jettySize=auto;html=1;exitX=1;exitY=0.5;exitDx=0;exitDy=0;exitPerimeter=0;entryX=0.5;entryY=0;entryDx=0;entryDy=0;endArrow=none;endFill=0;fillColor=#f8cecc;strokeColor=#b85450;" edge="1" parent="1" source="OVGBnBmBJw9VG8SYzuW9-10" target="OVGBnBmBJw9VG8SYzuW9-25">
          <mxGeometry relative="1" as="geometry">
            <Array as="points">
              <mxPoint x="370" y="370" />
            </Array>
          </mxGeometry>
        </mxCell>
        <mxCell id="OVGBnBmBJw9VG8SYzuW9-10" value="" style="verticalLabelPosition=bottom;shadow=0;dashed=0;align=center;html=1;verticalAlign=top;shape=mxgraph.electrical.logic_gates.logic_gate;operation=and;rotation=-180;fillColor=#d5e8d4;strokeColor=#82b366;" vertex="1" parent="1">
          <mxGeometry x="370" y="420" width="70" height="40" as="geometry" />
        </mxCell>
        <mxCell id="OVGBnBmBJw9VG8SYzuW9-15" value="&lt;font style=&quot;font-size: 20px;&quot;&gt;-&lt;/font&gt;" style="text;html=1;align=center;verticalAlign=middle;resizable=0;points=[];autosize=1;strokeColor=none;fillColor=none;" vertex="1" parent="1">
          <mxGeometry x="233" y="160" width="30" height="40" as="geometry" />
        </mxCell>
        <mxCell id="OVGBnBmBJw9VG8SYzuW9-20" style="edgeStyle=orthogonalEdgeStyle;rounded=0;orthogonalLoop=1;jettySize=auto;html=1;exitX=0;exitY=0.75;exitDx=0;exitDy=0;exitPerimeter=0;entryX=0.7;entryY=0;entryDx=0;entryDy=0;entryPerimeter=0;endArrow=none;endFill=0;fillColor=#dae8fc;strokeColor=#6c8ebf;" edge="1" parent="1" source="OVGBnBmBJw9VG8SYzuW9-17" target="OVGBnBmBJw9VG8SYzuW9-3">
          <mxGeometry relative="1" as="geometry">
            <Array as="points">
              <mxPoint x="440" y="260" />
              <mxPoint x="348" y="260" />
            </Array>
          </mxGeometry>
        </mxCell>
        <mxCell id="OVGBnBmBJw9VG8SYzuW9-26" style="edgeStyle=orthogonalEdgeStyle;rounded=0;orthogonalLoop=1;jettySize=auto;html=1;exitX=1;exitY=0.5;exitDx=0;exitDy=0;exitPerimeter=0;entryX=0.5;entryY=0;entryDx=0;entryDy=0;endArrow=none;endFill=0;fillColor=#f8cecc;strokeColor=#b85450;" edge="1" parent="1" source="OVGBnBmBJw9VG8SYzuW9-17" target="OVGBnBmBJw9VG8SYzuW9-25">
          <mxGeometry relative="1" as="geometry">
            <Array as="points">
              <mxPoint x="370" y="370" />
            </Array>
          </mxGeometry>
        </mxCell>
        <mxCell id="OVGBnBmBJw9VG8SYzuW9-17" value="" style="verticalLabelPosition=bottom;shadow=0;dashed=0;align=center;html=1;verticalAlign=top;shape=mxgraph.electrical.logic_gates.logic_gate;operation=and;rotation=-180;fillColor=#dae8fc;strokeColor=#6c8ebf;" vertex="1" parent="1">
          <mxGeometry x="370" y="280" width="70" height="40" as="geometry" />
        </mxCell>
        <mxCell id="OVGBnBmBJw9VG8SYzuW9-28" style="edgeStyle=orthogonalEdgeStyle;rounded=0;orthogonalLoop=1;jettySize=auto;html=1;exitX=0;exitY=0.5;exitDx=0;exitDy=0;entryX=0;entryY=0.72;entryDx=0;entryDy=0;entryPerimeter=0;endArrow=none;endFill=0;fillColor=#f8cecc;strokeColor=#b85450;" edge="1" parent="1" source="OVGBnBmBJw9VG8SYzuW9-25" target="OVGBnBmBJw9VG8SYzuW9-3">
          <mxGeometry relative="1" as="geometry">
            <Array as="points">
              <mxPoint x="320" y="270" />
              <mxPoint x="420" y="270" />
            </Array>
          </mxGeometry>
        </mxCell>
        <mxCell id="OVGBnBmBJw9VG8SYzuW9-25" value="&lt;font style=&quot;font-size: 18px;&quot;&gt;Logik&lt;/font&gt;" style="rounded=0;whiteSpace=wrap;html=1;rotation=90;fillColor=#f8cecc;strokeColor=#b85450;" vertex="1" parent="1">
          <mxGeometry x="240" y="340" width="160" height="60" as="geometry" />
        </mxCell>
        <mxCell id="OVGBnBmBJw9VG8SYzuW9-31" value="&lt;font style=&quot;font-size: 20px;&quot;&gt;I&lt;/font&gt;" style="text;html=1;align=center;verticalAlign=middle;resizable=0;points=[];autosize=1;" vertex="1" parent="1">
          <mxGeometry x="399" y="280" width="30" height="40" as="geometry" />
        </mxCell>
        <mxCell id="OVGBnBmBJw9VG8SYzuW9-32" value="&lt;font style=&quot;font-size: 20px;&quot;&gt;U&lt;/font&gt;" style="text;html=1;align=center;verticalAlign=middle;resizable=0;points=[];autosize=1;strokeColor=none;fillColor=none;" vertex="1" parent="1">
          <mxGeometry x="394" y="350" width="40" height="40" as="geometry" />
        </mxCell>
        <mxCell id="OVGBnBmBJw9VG8SYzuW9-33" value="&lt;font style=&quot;font-size: 20px;&quot;&gt;U&lt;/font&gt;" style="text;html=1;align=center;verticalAlign=middle;resizable=0;points=[];autosize=1;strokeColor=none;fillColor=none;" vertex="1" parent="1">
          <mxGeometry x="394" y="420" width="40" height="40" as="geometry" />
        </mxCell>
        <mxCell id="OVGBnBmBJw9VG8SYzuW9-34" value="&lt;font style=&quot;font-size: 14px;&quot;&gt;- - -&lt;/font&gt;" style="text;html=1;align=center;verticalAlign=middle;resizable=0;points=[];autosize=1;rotation=90;" vertex="1" parent="1">
          <mxGeometry x="389" y="390" width="50" height="30" as="geometry" />
        </mxCell>
        <mxCell id="OVGBnBmBJw9VG8SYzuW9-35" value="&lt;font style=&quot;font-size: 16px;&quot;&gt;Akku Zellen&lt;/font&gt;" style="text;html=1;align=center;verticalAlign=middle;resizable=0;points=[];autosize=1;strokeColor=none;fillColor=none;" vertex="1" parent="1">
          <mxGeometry x="479" y="135" width="110" height="30" as="geometry" />
        </mxCell>
        <mxCell id="OVGBnBmBJw9VG8SYzuW9-37" value="&lt;font style=&quot;font-size: 15px;&quot;&gt;MOSFET&lt;/font&gt;" style="text;html=1;align=center;verticalAlign=middle;resizable=0;points=[];autosize=1;strokeColor=none;fillColor=none;" vertex="1" parent="1">
          <mxGeometry x="284" y="161" width="90" height="30" as="geometry" />
        </mxCell>
      </root>
    </mxGraphModel>
  </diagram>
</mxfile>
